<svg version="1.0" viewBox="0 0 48 48" xmlns="http://www.w3.org/2000/svg"><path d="m8.1373 33.555-3.7515.52371-1.0238-3.4741 4.7752 2.9504" fill="#231f20"/><path d="m45.334 19.396-1.9811.14599c1.506 1.36 2.265 2.8454 2.265 4.4585 0 2.7602-2.1025 5.1501-6.3062 7.1701-4.2034 2.0218-9.2558 3.0312-15.159 3.0312-5.1413 0-9.1044-.57137-12.976-2.1389l-1.2202 1.1952c4.0731 1.4583 8.7343 2.1884 13.989 2.1884 6.6232 0 12.292-1.1325 17.009-3.4011 4.7162-2.2668 7.0748-4.9481 7.0748-8.045 0-1.6535-1.2851-3.6681-2.695-4.6045" fill="#ed1c24"/><path d="m2.8251 29.396 2.948-.22143c-1.9916-1.5494-2.9872-3.2732-2.9872-5.1736 0-2.6961 2.0852-5.0368 6.2556-7.0265 4.1698-1.9894 9.1758-3.0474 15.016-3.1764 5.2321.11328 9.7868.94139 13.664 2.4858l1.2295-.6545c-3.9143-1.787-9.6052-2.957-15.113-3.076-6.5521.14466-12.169 1.3315-16.847 3.5637-4.6798 2.2323-7.0192 4.859-7.0192 7.8839 0 1.9662.95363 3.7636 2.8538 5.3951" fill="#ed1c24"/><path d="m28.879 16.76c-2.0532-.01401-4.2632.25944-6.6328.8164-3.6702 1.0335-6.6639 2.5174-8.9746 4.4551-2.3116 1.938-3.2459 3.7583-2.8066 5.4609.45071 1.7449 2.1677 2.9146 5.1543 3.5059 2.9851.59309 6.3221.41106 10.014-.54102 3.7305-.96296 6.7614-2.4254 9.0879-4.3887 2.3271-1.9621 3.2665-3.8154 2.8164-5.5606-.4399-1.7033-2.1511-2.8419-5.1328-3.4141-1.1177-.21438-2.2934-.32558-3.5254-.33398zm-1.2832 4.5176c.18645-.0032.36904-.003.54883.002 1.4377.03982 2.2207.39028 2.3477 1.0488.12727.83231-.42603 1.6236-1.6602 2.375-1.2338.7512-2.7523 1.3164-4.5566 1.6953-1.6218.41872-3.2013.58936-4.7363.50976-1.535-.08025-2.385-.44456-2.5527-1.0938-.1665-.64802.35687-1.3365 1.5762-2.0625 1.2181-.72522 2.7618-1.3291 4.6289-1.8105 1.6318-.42105 3.0991-.64189 4.4043-.66407z" fill="#ed1c24"/><path d="m39.184 17.327 2.7586-1.8583 1.7105 2.9184-4.4691-1.0601" fill="#231f20"/></svg>
