<svg fill="none" version="1.1" viewBox="0 0 400 480" xmlns="http://www.w3.org/2000/svg">
  <title>FreeCAD-symbol</title>
  <path d="m400 80-80 80h-160v60h80v80h-80v100l-80 80h81.008c6.0652 0 11.438-3.9054 13.312-9.6738l14.48-44.566c1.384-4.2618 4.7298-7.5966 8.9916-8.9814l11.131-3.6172c4.262-1.386 8.9314-.65 12.557 1.984l37.899 27.543c4.9066 3.5646 11.557 3.5646 16.464 0l33.972-24.691c4.9072-3.5648 6.9592-9.8788 5.085-15.647l-14.48-44.566c-1.386-4.262-.64-8.9314 1.994-12.557l6.8834-9.4672c2.6338-3.6254 6.8358-5.777 11.317-5.7774l46.86.0102c6.0656 2e-4 11.438-3.9154 13.312-9.684l12.981-39.935c1.874-5.7684-.18-12.093-5.085-15.658l-37.91-27.543c-3.6256-2.6342-5.767-6.8356-5.767-11.317v-11.71c4e-4-4.4814 2.1412-8.6936 5.767-11.327l43.46-31.574c3.6262-2.6338 5.7678-6.8456 5.7678-11.327z" fill="#418fde" fill-rule="evenodd"/>
  <path d="m320 0-80 80h80v80l80-80v-80zm-240 320-80 80v80h80l80-80h-80z" fill="#ff585d" fill-rule="evenodd"/>
  <path d="m80 0-80 80v320l80-80v-240h160l80-80z" fill="#cb333b" fill-rule="evenodd"/>
  <path d="m80 400h80v-100h80v-80h-80v-60h160v-80h-240z" fill="#fff" fill-rule="evenodd"/>
</svg>
