<svg version="1.1" viewBox="0 0 136.66 136.76" xmlns="http://www.w3.org/2000/svg">
  <g transform="translate(-40.547 -883.62)">
    <path d="m51.679 901.98h114.39c.51273 0 .9255.43179.9255.96814v109.8c0 .5364-.41277.9682-.9255.9682h-114.39c-.51273 0-.9255-.4318-.9255-.9682v-109.8c0-.53635.41277-.96814.9255-.96814z" fill="#314cb0" stroke="#1d2d68" stroke-width="4.8505"/>
    <path d="m80.269 948.26 16.928-21.41c3.4602-4.3645 5.1903-7.6282 5.1903-9.7909-6e-5-.78633-.0984-1.4155-.29491-1.8874h29.55c-2.2414 1.2584-5.0528 3.9125-8.4343 7.9625-.90445 1.0618-2.4969 3.0081-4.7775 5.8391l-22.177 27.603 26.483 36.45c1.6121 2.202 3.6568 4.6792 6.134 7.4316.66837.7078 1.6317 1.5532 2.8901 2.5362h-30.316c.23587-.9044.35383-1.7105.35389-2.4183-6e-5-2.1626-1.4942-5.2886-4.4826-9.378l-17.046-23.239v23.534c-3.2e-5 5.4656 1.1009 9.2994 3.3029 11.501h-27.721c1.5335-1.5335 2.5165-3.2833 2.9491-5.2494.23591-1.101.35388-3.1653.35389-6.193v-64.938c-1.2e-5-3.0276-.11797-5.092-.35389-6.193-.43254-1.966-1.4156-3.7157-2.9491-5.2493h27.721c-2.202 2.202-3.303 6.0162-3.3029 11.442v21.646" fill="#fff"/>
    <path d="m159.48 938.47v54.145c-3e-5 2.8311.0786 4.6792.23593 5.5442.31453 1.7694 1.1403 3.3816 2.4772 4.8365h-25.952c1.3369-1.4549 2.1626-3.067 2.4772-4.8365.15727-.86505.23591-2.7131.23592-5.5442v-43.882c-1e-5-2.831-.0787-4.6595-.23592-5.4853-.31458-1.73-1.1206-3.3225-2.4182-4.7775h23.18m-10.263-30.847c3.2636 9e-5 6.0357 1.1601 8.3164 3.4799 2.3199 2.2807 3.4799 5.0528 3.4799 8.3164-3e-5 3.3424-1.1403 6.1538-3.4209 8.4343-2.2413 2.2414-5.0331 3.362-8.3753 3.3619-3.2636 7e-5-6.0554-1.1402-8.3753-3.4209-2.2806-2.3198-3.4209-5.1116-3.4209-8.3753-1e-5-3.3422 1.1206-6.134 3.3619-8.3753 2.2806-2.2805 5.092-3.4208 8.4343-3.4209" fill="#fff"/>
    <path d="m135.29 906.65h28.315v27.031h-28.315z" fill="#314cb0"/>
    <path d="m161.17 902.01c0 6.6024-5.3682 11.955-11.99 11.955-6.622 0-11.99-5.3523-11.99-11.955s5.3682-11.955 11.99-11.955c6.622 0 11.99 5.3524 11.99 11.955z" fill="#f70"/>
  </g>
</svg>
