<svg height="32" viewBox="0 0 32 32" width="32" xmlns="http://www.w3.org/2000/svg" xmlns:xlink="http://www.w3.org/1999/xlink"><linearGradient id="a" gradientUnits="userSpaceOnUse" x1="4" x2="28" y1="31" y2="1"><stop offset="0" stop-color="#4b4b4b"/><stop offset="1" stop-color="#969696"/></linearGradient><linearGradient id="b" gradientUnits="userSpaceOnUse" x1="25" x2="7" y1="27" y2="4"><stop offset="0" stop-color="#fafafa" stop-opacity=".79725"/><stop offset="1" stop-color="#fafafa"/></linearGradient><radialGradient id="c" cx="24" cy="6" gradientTransform="matrix(-1 0 0 -1 48 12)" gradientUnits="userSpaceOnUse" r="11"><stop offset="0" stop-opacity=".20201"/><stop offset="1" stop-opacity="0"/></radialGradient><g fill-rule="evenodd"><path d="m7 0c-2.216 0-4 1.784-4 4v24c0 2.216 1.784 4 4 4h18c2.216 0 4-1.784 4-4v-16l-12-12zm13 0 9 9v-9z" fill="url(#a)" stroke-linecap="square"/><g stroke-linecap="square"><path d="m3 27v1c0 2.216 1.784 4 4 4h18c2.216 0 4-1.784 4-4v-1c0 2.216-1.784 4-4 4h-18c-2.216 0-4-1.784-4-4z" fill-opacity=".19862"/><path d="m20 0h1.4l7.6 7.6v1.4z" fill-opacity=".20149"/></g><path d="m7 3c-.554 0-1 .446-1 1v23c0 .554.446 1 1 1h18c.554 0 1-.446 1-1v-13.75l-10.25-10.25z" fill="url(#b)"/><path d="m13.424 3a11 11 0 0 0 -.42383 3 11 11 0 0 0 11 11 11 11 0 0 0 2-.20508v-3.5449l-10.25-10.25h-2.3262z" fill="url(#c)" fill-rule="evenodd" stroke-linecap="square" stroke-width="2"/><path d="m15.75 3 10.25 10.25h-10.25z" fill="#fafafa"/></g></svg>