<svg fill="none" version="1.1" viewBox="4 2 40 44" xmlns="http://www.w3.org/2000/svg"><title>Microsoft 365 logo (2022)</title><path d="m20.084 3.0259-.2247.13591c-.3574.2162-.6941.45793-1.0083.72206l.6481-.45587h5.5007l1 7.572-5 5-5 3.4754v4.0075c0 2.799 1.4629 5.3945 3.8574 6.8439l5.2637 3.1861-11.121 6.4873h-2.1449l-3.9977-2.4198c-2.3945-1.4494-3.8574-4.0449-3.8574-6.8439v-13.476c0-2.7999 1.4638-5.3961 3.8595-6.8452l12-7.2585c.0744-.04498.1493-.08864.2247-.13099z" fill="url(#paint0_radial_2994_8373)"/><path d="m20.084 3.0259-.2247.13591c-.3574.2162-.6941.45793-1.0083.72206l.6481-.45587h5.5007l1 7.572-5 5-5 3.4754v4.0075c0 2.799 1.4629 5.3945 3.8574 6.8439l5.2637 3.1861-11.121 6.4873h-2.1449l-3.9977-2.4198c-2.3945-1.4494-3.8574-4.0449-3.8574-6.8439v-13.476c0-2.7999 1.4638-5.3961 3.8595-6.8452l12-7.2585c.0744-.04498.1493-.08864.2247-.13099z" fill="url(#paint1_linear_2994_8373)"/><path d="m32 19v4.4803c0 2.799-1.4629 5.3945-3.8574 6.8439l-12 7.2636c-2.4548 1.4859-5.5091 1.5395-8.0071.1609l11.722 7.0953c2.5466 1.5415 5.7386 1.5415 8.2853 0l12-7.2637c2.3945-1.4494 3.8573-4.0449 3.8573-6.8439v-3.2364l-1-1.5-11-7z" fill="url(#paint2_radial_2994_8373)"/><path d="m32 19v4.4803c0 2.799-1.4629 5.3945-3.8574 6.8439l-12 7.2636c-2.4548 1.4859-5.5091 1.5395-8.0071.1609l11.722 7.0953c2.5466 1.5415 5.7386 1.5415 8.2853 0l12-7.2637c2.3945-1.4494 3.8573-4.0449 3.8573-6.8439v-3.2364l-1-1.5-11-7z" fill="url(#paint3_linear_2994_8373)"/><path d="m40.14 10.415-12-7.2585c-2.4667-1.4921-5.5384-1.5383-8.0426-.13867l-.2384.1442c-2.3957 1.4491-3.8595 4.0453-3.8595 6.8452v9.4839l3.8595-2.3346c2.5456-1.5397 5.7354-1.5397 8.281 0l12 7.2585c2.3208 1.4039 3.7671 3.8841 3.8552 6.5832.0029-.0872.0043-.1745.0043-.2621v-13.476c0-2.7999-1.4638-5.3961-3.8595-6.8452z" fill="url(#paint4_radial_2994_8373)"/><path d="m40.14 10.415-12-7.2585c-2.4667-1.4921-5.5384-1.5383-8.0426-.13867l-.2384.1442c-2.3957 1.4491-3.8595 4.0453-3.8595 6.8452v9.4839l3.8595-2.3346c2.5456-1.5397 5.7354-1.5397 8.281 0l12 7.2585c2.3208 1.4039 3.7671 3.8841 3.8552 6.5832.0029-.0872.0043-.1745.0043-.2621v-13.476c0-2.7999-1.4638-5.3961-3.8595-6.8452z" fill="url(#paint5_linear_2994_8373)"/><path d="m4.0043 30.998z" fill="url(#paint4_radial_2994_8373)"/><path d="m4.0043 30.998z" fill="url(#paint5_linear_2994_8373)"/><defs><radialGradient id="paint0_radial_2994_8373" cx="0" cy="0" r="1" gradientTransform="translate(17.419 10.638) rotate(110.53) scale(33.366 58.197)" gradientUnits="userSpaceOnUse"><stop stop-color="#AE7FE2" offset=".06441"/><stop stop-color="#0078D4" offset="1"/></radialGradient><linearGradient id="paint1_linear_2994_8373" x1="17.512" x2="12.751" y1="37.868" y2="29.635" gradientUnits="userSpaceOnUse"><stop stop-color="#114A8B" offset="0"/><stop stop-color="#0078D4" stop-opacity="0" offset="1"/></linearGradient><radialGradient id="paint2_radial_2994_8373" cx="0" cy="0" r="1" gradientTransform="translate(10.43 36.351) rotate(-8.3672) scale(31.05 20.511)" gradientUnits="userSpaceOnUse"><stop stop-color="#D59DFF" offset=".13393"/><stop stop-color="#5E438F" offset="1"/></radialGradient><linearGradient id="paint3_linear_2994_8373" x1="40.357" x2="35.255" y1="25.377" y2="32.692" gradientUnits="userSpaceOnUse"><stop stop-color="#493474" offset="0"/><stop stop-color="#8C66BA" stop-opacity="0" offset="1"/></linearGradient><radialGradient id="paint4_radial_2994_8373" cx="0" cy="0" r="1" gradientTransform="translate(41.055 26.504) rotate(194.23) scale(24.923 41.955)" gradientUnits="userSpaceOnUse"><stop stop-color="#50E6FF" offset=".0585"/><stop stop-color="#436DCD" offset="1"/></radialGradient><linearGradient id="paint5_linear_2994_8373" x1="16.976" x2="24.487" y1="3.0566" y2="3.0566" gradientUnits="userSpaceOnUse"><stop stop-color="#2D3F80" offset="0"/><stop stop-color="#436DCD" stop-opacity="0" offset="1"/></linearGradient></defs></svg>
