<svg clip-rule="evenodd" stroke-linejoin="round" stroke-miterlimit="1.4142" version="1.1" viewBox="0 0 48 48" xmlns="http://www.w3.org/2000/svg"><path d="m23.886 21.821c-5.2192 0-9.9612.62749-13.472 1.65v8.7348c3.5106 1.0226 8.2526 1.65 13.472 1.65 5.9736 0 11.321-.8219 14.914-2.1174v-7.7999c-3.5922-1.2956-8.9401-2.1176-14.914-2.1176" fill="#a52b00"/><path d="m44.18 28.918-.61178-1.2674c.0031-.04813.0056-.0963.0056-.14465 0-1.4368-1.4941-2.761-4.0078-3.8212v7.6424c1.1729-.49473 2.1244-1.0468 2.8049-1.6413-.20027.80533-.88527 2.4346-1.4314 3.5803-.89758 1.6387-1.2226 3.0653-1.1809 3.1359.02656.04447.33277-.42791.78432-1.1934 1.0508-1.4973 3.0421-4.3558 3.44-5.084.45082-.82543.19695-1.2068.19695-1.2068" fill="#a52b00"/><path d="m4.5875 27.59c0 .27672.055663.54931.16307.81661l-.36639.6522s-.29351.38082.22334 1.1842c.45589.70838 2.7395 3.4813 3.9447 4.9334.51771.74446.8687 1.203.89943 1.1587.048388-.0703-.32184-1.468-1.35-3.0626-.47974-.85647-1.0527-1.9911-1.3966-2.8293.96013.60769 2.2163 1.1589 3.7088 1.6333v-8.973c-3.5965 1.1429-5.8264 2.7308-5.8264 4.4865" fill="#a52b00"/><path d="m47.732 28.911-4.0215-2.9623c-.03788-.1319-.07559-.26376-.1146-.39442l1.3209-1.9136c.13475-.19467.16208-.44763.07452-.66964-.08769-.22084-.27944-.37927-.50639-.41801l-2.2336-.37905c-.08644-.17659-.17719-.35051-.2682-.52305l.93835-2.1483c.09656-.21899.07615-.47333-.05179-.67192-.12747-.19958-.34397-.31616-.57467-.30707l-2.2668.08235c-.1174-.15283-.2366-.30427-.35822-.45292l.5209-2.3027c.05273-.23389-.01386-.47862-.17663-.6485-.16195-.16927-.3973-.23931-.62103-.18438l-2.208.54277c-.14297-.12635-.28835-.25111-.4354-.37337l.07956-2.364c.0085-.23931-.10302-.46674-.29463-.59946-.1914-.13363-.4345-.15382-.64385-.0545l-2.0598.97925c-.16591-.09514-.33269-.18942-.50127-.28055l-.36399-2.3296c-.03689-.23604-.18877-.43648-.40148-.52805-.21193-.091997-.45495-.062293-.64105.07783l-1.8365 1.3779c-.18081-.06005-.36243-.11761-.54638-.17267l-.79151-2.2091c-.0805-.22511-.26609-.3905-.4924-.437-.22554-.046149-.45762.031943-.61402.20672l-1.5457 1.7293c-.18696-.02152-.37393-.04116-.5615-.0573l-1.1935-2.011c-.12097-.20371-.3345-.32769-.56464-.32769-.22963 0-.44358.12398-.56352.32769l-1.1939 2.011c-.18761.01614-.37548.03577-.56206.0573l-1.5459-1.7293c-.15653-.17478-.38947-.25287-.61423-.20672-.22623.04701-.41211.21189-.49219.437l-.7922 2.2091c-.18339.05506-.3651.11309-.54634.17267l-1.8358-1.3779c-.18666-.1406-.42964-.17026-.64213-.07783-.21176.09157-.36424.292-.40092.52805l-.36424 2.3296c-.1685.09114-.33531.18486-.50166.28055l-2.0596-.97925c-.20913-.0997-.45327-.07913-.64376.0545-.19136.13272-.30316.36015-.29446.59946l.079 2.364c-.14658.12226-.29162.24702-.43532.37337l-2.2075-.54277c-.22429-.05446-.45934.01511-.62168.18438-.16337.16987-.2295.41461-.17706.6485l.52 2.3027c-.12062.14925-.24.3001-.35701.45292l-2.2668-.08235c-.22877-.0068-.44711.1075-.57497.30707-.12799.19859-.14736.45292-.052219.67192l.93917 2.1483c-.091222.17254-.18184.34646-.26902.52305l-2.2337.37905c-.22687.03823-.41801.19656-.50626.41801-.087821.22201-.058978.47497.074476.66964l1.3216 1.9136c-.010332.03375-.019803.06789-.030135.10177l-3.7354 3.9679s-.57213.4487.26131 1.5031c.73486.93008 4.5083 4.6172 6.5013 6.5488.84179.98063 1.4184 1.5879 1.4787 1.5354.095053-.08352-.40411-1.8677-2.0622-3.9611-1.2779-1.8782-2.9366-4.767-2.5475-5.1 0 0 .44212-.56158 1.3299-.96582.032416.02596-.033622-.02574 0 0 0 0 18.733 8.6414 36.11.1462 1.9849-.35615 3.1867.7073 3.1867.7073.41448.24022-.6587 3.2106-1.5411 5.1769-1.2003 2.2327-1.3763 3.9749-1.2744 4.0353.06419.03827.50084-.62616 1.1238-1.6836 1.537-2.1416 4.4423-6.2244 4.9742-7.216.60295-1.1244 0-1.4395 0-1.4395" fill="#f74c00"/><path d="m17.557 34.456c-.07163-.06113-.10917-.09738-.10917-.09738l6.1364-.50269c-5.0055-6.6034-9.0156-1.3431-9.4424-.75492v1.355z"/><path d="m30.334 34.385c.07159-.06113.10917-.09746.10917-.09746l-5.8971-.43149c5.0079-6.8745 8.7765-1.4143 9.2033-.82612v1.3551z"/><path d="m39.76 27.829s-.67054 2.6708-4.8411 5.4775l-1.1695.2741s-3.7832-6.8991-9.143.87537c0 0 1.6704-.97253 6.1484.2118 0 0-2.0599 3.1529-6.2096 3.056 0 0 3.9766 4.7708 10.028-2.1203 0 0 6.397-2.4738 6.9157-7.7746z" fill="#f74c00"/><path d="m27.332 24.408s1.8721-2.0498 3.7442 0c0 0 1.471 2.7333 0 4.0998 0 0-2.407 1.9133-3.7442 0 0 0-1.6047-1.5033 0-4.0998"/><path d="m29.499 25.168c0 .79818-.47053 1.4453-1.0508 1.4453-.58018 0-1.0507-.64708-1.0507-1.4453s.47049-1.4453 1.0507-1.4453c.58022 0 1.0508.64716 1.0508 1.4453" fill="#fff"/><path d="m18.976 23.848s3.2113-1.4218 4.0878 1.7517c0 0 .91812 3.6991-2.6372 3.9079 0 0-4.5336-.87317-1.4506-5.6596"/><path d="m20.589 25.221c0 .82306-.48517 1.4907-1.0837 1.4907-.5983 0-1.0836-.66761-1.0836-1.4907 0-.82328.4853-1.4907 1.0836-1.4907.59852 0 1.0837.6674 1.0837 1.4907" fill="#fff"/><path d="m17.172 34.954c3.9534-.49826 6.2381-.54466 6.2381-.54466-5.2894-6.9776-9.5813-.66055-9.5813-.66055-1.0755-.38452-2.172-1.8775-2.991-3.2541l-3.282-.97206c3.7829 6.4205 6.5993 6.5183 6.5993 6.5183 5.864 7.516 8.6419 1.4764 8.6419 1.4764-3.2919-.37376-5.625-2.5633-5.625-2.5633" fill="#f74c00"/></svg>
